<?xml version="1.0" encoding="UTF-8" standalone="no"?>
<!-- Created with Inkscape (http://www.inkscape.org/) -->

<svg
   xmlns:dc="http://purl.org/dc/elements/1.1/"
   xmlns:cc="http://creativecommons.org/ns#"
   xmlns:rdf="http://www.w3.org/1999/02/22-rdf-syntax-ns#"
   xmlns:svg="http://www.w3.org/2000/svg"
   xmlns="http://www.w3.org/2000/svg"
   xmlns:sodipodi="http://sodipodi.sourceforge.net/DTD/sodipodi-0.dtd"
   xmlns:inkscape="http://www.inkscape.org/namespaces/inkscape"
   width="210mm"
   height="297mm"
   viewBox="0 0 210 297"
   version="1.1"
   id="svg8"
   inkscape:version="0.92.2 5c3e80d, 2017-08-06"
   sodipodi:docname="redux-kit-n-white.svg">
  <defs
     id="defs2" />
  <sodipodi:namedview
     id="base"
     pagecolor="#ffffff"
     bordercolor="#666666"
     borderopacity="1.0"
     inkscape:pageopacity="0.0"
     inkscape:pageshadow="2"
     inkscape:zoom="1.4142136"
     inkscape:cx="253.40194"
     inkscape:cy="543.58523"
     inkscape:document-units="mm"
     inkscape:current-layer="layer1"
     showgrid="false"
     inkscape:lockguides="true"
     inkscape:window-width="1280"
     inkscape:window-height="694"
     inkscape:window-x="0"
     inkscape:window-y="1"
     inkscape:window-maximized="1">
    <inkscape:grid
       type="xygrid"
       id="grid4616" />
  </sodipodi:namedview>
  <metadata
     id="metadata5">
    <rdf:RDF>
      <cc:Work
         rdf:about="">
        <dc:format>image/svg+xml</dc:format>
        <dc:type
           rdf:resource="http://purl.org/dc/dcmitype/StillImage" />
        <dc:title></dc:title>
      </cc:Work>
    </rdf:RDF>
  </metadata>
  <g
     inkscape:label="Layer 1"
     inkscape:groupmode="layer"
     id="layer1">
    <path
       style="fill:none;fill-opacity:1;stroke:#ffffff;stroke-width:1.5;stroke-linecap:butt;stroke-linejoin:miter;stroke-miterlimit:4;stroke-dasharray:none;stroke-opacity:1"
       d="M 62.5,144 59.999768,127 72,134 c 5.764609,-2.79698 10.617364,-2.67185 16,0 l 12,-7 -2.5,17 c 2.82972,8.90172 -3.325478,22.38835 -17.5,22.03124 C 65.761868,166.27359 59.836921,152.92394 62.5,144 Z"
       id="path3699"
       inkscape:connector-curvature="0"
       sodipodi:nodetypes="cccccccc" />
    <ellipse
       style="fill:none;fill-opacity:1;stroke-width:1;stroke-miterlimit:4;stroke-dasharray:none"
       id="path4506"
       cx="73.79985"
       cy="144.39211"
       rx="1.984375"
       ry="1.7953868" />
    <path
       style="fill:#000000;fill-opacity:1;stroke:#fffffb;stroke-width:0.26458332px;stroke-linecap:butt;stroke-linejoin:miter;stroke-opacity:1"
       d="m 79,152.75 c 0.09698,1.07552 0.11121,1.4558 1,1.45466 0.905911,-10e-4 0.952438,-0.35045 1,-1.45466 0.03401,-0.78968 0,0 0,0 v 0 c 0.76127,-0.79547 2.591089,-0.75709 2,-1.5 -1.737498,-1.28126 -4.293925,-1.33209 -6,0 -0.412077,0.88255 1.054161,0.80963 2,1.5 z"
       id="path4524"
       inkscape:connector-curvature="0"
       sodipodi:nodetypes="cssccccc" />
    <path
       style="fill:#000000;fill-opacity:1;stroke:#ffffff;stroke-width:0.09928878;stroke-miterlimit:4;stroke-dasharray:none;stroke-opacity:1"
       id="path4526"
       sodipodi:type="arc"
       sodipodi:cx="72.750008"
       sodipodi:cy="142.57684"
       sodipodi:rx="2.7003489"
       sodipodi:ry="2.873503"
       sodipodi:start="0"
       sodipodi:end="5.6652563"
       d="m 75.450356,142.57684 a 2.7003489,2.873503 0 0 1 -2.28485,2.83929 2.7003489,2.873503 0 0 1 -2.987983,-1.96553 2.7003489,2.873503 0 0 1 1.365337,-3.44415 2.7003489,2.873503 0 0 1 3.408148,0.90563 l -2.201,1.66476 z" />
    <path
       style="fill:#000000;fill-opacity:1;stroke:#ffffe1;stroke-width:0.09928878;stroke-miterlimit:4;stroke-dasharray:none;stroke-opacity:1"
       id="path4526-9"
       sodipodi:type="arc"
       sodipodi:cx="87.250008"
       sodipodi:cy="142.54066"
       sodipodi:rx="2.7003489"
       sodipodi:ry="2.8735032"
       sodipodi:start="0"
       sodipodi:end="5.6532947"
       d="m 89.950356,142.54066 a 2.7003489,2.8735032 0 0 1 -2.276873,2.83795 2.7003489,2.8735032 0 0 1 -2.991003,-1.94784 2.7003489,2.8735032 0 0 1 1.338759,-3.44888 2.7003489,2.8735032 0 0 1 3.410899,0.86612 l -2.18213,1.69265 z"
       inkscape:transform-center-x="0.94493379"
       inkscape:transform-center-y="-3.2127832" />
    <path
       style="fill:none;stroke:#ffffff;stroke-width:1;stroke-linecap:butt;stroke-linejoin:miter;stroke-miterlimit:4;stroke-dasharray:none;stroke-opacity:1"
       d="M 80,154.27807 V 159.65"
       id="path4572"
       inkscape:connector-curvature="0"
       sodipodi:nodetypes="cc" />
    <path
       style="fill:none;stroke:#ffffff;stroke-width:1;stroke-linecap:butt;stroke-linejoin:miter;stroke-miterlimit:4;stroke-dasharray:none;stroke-opacity:1"
       d="m 75.5,159.2 c 0.410913,1.67084 3.52633,3.2782 4.5,0.65 0.918318,2.56273 3.760555,0.9425 4.5,-0.75"
       id="path4574"
       inkscape:connector-curvature="0"
       sodipodi:nodetypes="ccc" />
    <path
       style="fill:none;stroke:#ffffc0;stroke-width:0.8;stroke-linecap:round;stroke-linejoin:miter;stroke-miterlimit:4;stroke-dasharray:none;stroke-opacity:1"
       d="m 84.7,151.15 c 3.498512,-1.55074 6.24026,-2.20125 5.3,-3.15 -0.668704,-0.57431 -4.982608,0.44533 -10,2.42484"
       id="path4580"
       inkscape:connector-curvature="0"
       sodipodi:nodetypes="ccc" />
    <path
       style="fill:none;stroke:#ffffff;stroke-width:0.8;stroke-linecap:round;stroke-linejoin:miter;stroke-miterlimit:4;stroke-dasharray:none;stroke-opacity:1"
       d="m 78.2,151.2 c -0.972265,0.66547 -8.911496,3.20316 -8.2,4.6 0.531905,1.04426 6.712972,-1.34448 8,-2"
       id="path4582"
       inkscape:connector-curvature="0"
       sodipodi:nodetypes="csc" />
    <path
       style="fill:none;stroke:#ffffff;stroke-width:0.8;stroke-linecap:round;stroke-linejoin:miter;stroke-miterlimit:4;stroke-dasharray:none;stroke-opacity:1"
       d="m 75.3,151.15 c -3.638454,-1.33556 -6.043746,-2.27569 -5.3,-3.15 0.405331,-0.47649 5.455958,0.6336 10,2.42484"
       id="path4584"
       inkscape:connector-curvature="0"
       sodipodi:nodetypes="csc" />
    <path
       style="fill:none;stroke:#ffffff;stroke-width:0.8;stroke-linecap:round;stroke-linejoin:miter;stroke-miterlimit:4;stroke-dasharray:none;stroke-opacity:1"
       d="m 82,153.8 c 0.884238,0.45765 7.371021,3.1753 8,2 0.197033,-1.12418 -7.183721,-4.1009 -8.2,-4.6"
       id="path4595"
       inkscape:connector-curvature="0"
       sodipodi:nodetypes="ccc" />
  </g>
</svg>
